<?xml version="1.0" encoding="UTF-8"?>
<svg id="Layer_1" data-name="Layer 1" xmlns="http://www.w3.org/2000/svg" xmlns:xlink="http://www.w3.org/1999/xlink" viewBox="0 0 134 28">
  <defs>
    <style>
      .cls-1 {
        fill: #fff;
      }

      .cls-2 {
        fill: none;
      }

      .cls-3 {
        fill: #1f2937;
      }

      .cls-4 {
        fill: url(#linear-gradient);
      }

      .cls-5 {
        clip-path: url(#clippath);
      }
    </style>
    <linearGradient id="linear-gradient" x1="8" y1="22" x2="24.97" y2="5.03" gradientTransform="translate(0 30) scale(1 -1)" gradientUnits="userSpaceOnUse">
      <stop offset="0" stop-color="#3b82f6"/>
      <stop offset="1" stop-color="#2563eb"/>
    </linearGradient>
    <clipPath id="clippath">
      <rect class="cls-2" x="7" y="7" width="14" height="14"/>
    </clipPath>
  </defs>
  <g>
    <path class="cls-4" d="M2,10C2,5.58,5.58,2,10,2h8c4.42,0,8,3.58,8,8v8c0,4.42-3.58,8-8,8h-8c-4.42,0-8-3.58-8-8v-8Z"/>
    <g class="cls-5">
      <path class="cls-1" d="M19.08,11.16l-.14.33c-.02.05-.06.1-.11.13-.05.03-.11.05-.16.05s-.12-.02-.16-.05c-.05-.03-.09-.08-.11-.13l-.14-.33c-.25-.58-.71-1.05-1.3-1.31l-.44-.2c-.05-.02-.1-.06-.13-.11-.03-.05-.05-.11-.05-.17s.02-.12.05-.17c.03-.05.08-.09.13-.11l.42-.19c.6-.27,1.07-.75,1.31-1.36l.15-.36c.02-.06.06-.1.11-.14.05-.03.11-.05.17-.05s.12.02.17.05.09.08.11.14l.15.36c.25.6.72,1.09,1.31,1.36l.42.19c.05.02.1.06.13.11.03.05.05.11.05.17s-.02.12-.05.17c-.03.05-.08.09-.13.11l-.44.2c-.58.26-1.04.73-1.29,1.31M11.96,10.5h-1.17v7h1.17v-7ZM9.33,12.83h-1.17v2.33h1.17v-2.33ZM14.58,8.17h-1.17v11.67h1.17v-11.67ZM17.21,11.67h-1.17v5.83h1.17v-5.83ZM19.83,12.83h-1.17v2.33h1.17v-2.33Z"/>
    </g>
  </g>
  <path class="cls-3" d="M37.29,18.28l-.72-2.16h-3.24l-.71,2.16h-1.54l3.05-8.55h1.71l3.05,8.55h-1.61ZM34.39,12.96l-.62,1.87h2.38l-.61-1.87-.57-1.76-.57,1.76ZM42.15,18.39c-1.76,0-2.87-1.11-2.87-2.97v-.39c0-1.83,1.14-2.97,2.87-2.97,1.54,0,2.38.84,2.63,2.06h-1.51c-.12-.44-.55-.74-1.17-.74-.72,0-1.32.48-1.32,1.65v.39c0,1.15.62,1.65,1.32,1.65s1.05-.35,1.17-.81h1.51c-.24,1.28-1.09,2.12-2.63,2.12ZM48.31,18.39c-1.76,0-2.87-1.11-2.87-2.97v-.39c0-1.83,1.14-2.97,2.87-2.97,1.54,0,2.38.84,2.63,2.06h-1.51c-.12-.44-.55-.74-1.17-.74-.72,0-1.32.48-1.32,1.65v.39c0,1.15.62,1.65,1.32,1.65s1.05-.35,1.17-.81h1.51c-.24,1.28-1.09,2.12-2.63,2.12ZM54.48,18.39c-1.75,0-2.87-1.12-2.87-2.97v-.39c0-1.84,1.12-2.97,2.87-2.97s2.87,1.15,2.87,3.16v.48h-4.32c.07,1.01.59,1.44,1.45,1.44s1.22-.35,1.34-.76h1.47c-.24,1.15-1.1,2-2.81,2ZM54.48,13.31c-.82,0-1.31.39-1.43,1.27h2.86c-.11-.9-.6-1.27-1.43-1.27ZM58.57,18.28v-6.11h1.11l.11.68c.44-.51,1.1-.79,1.89-.79,1.49,0,2.38.89,2.38,2.67v3.54h-1.42v-3.54c0-.89-.46-1.36-1.21-1.36-.88,0-1.43.53-1.45,1.29v3.6h-1.42ZM64.74,13.42v-1.25h1.1v-1.71h1.42v1.71h1.51v1.25h-1.51v2.7c0,.63.28.92.85.92h.78v1.25h-1.04c-1.29,0-2.01-.72-2.01-2.01v-2.84h-1.1ZM77.89,18.28l-2.93-5.62-.51-1.11v6.73h-1.47v-8.55h2.05l2.93,5.62.51,1.12v-6.74h1.47v8.55h-2.05ZM84.1,18.39c-1.75,0-2.87-1.12-2.87-2.97v-.39c0-1.84,1.12-2.97,2.87-2.97s2.87,1.15,2.87,3.16v.48h-4.32c.07,1.01.59,1.44,1.45,1.44s1.22-.35,1.34-.76h1.47c-.24,1.15-1.1,2-2.81,2ZM84.1,13.31c-.82,0-1.31.39-1.43,1.27h2.86c-.11-.9-.6-1.27-1.43-1.27ZM90.44,18.39c-1.43,0-2.32-.89-2.32-2.67v-3.54h1.42v3.54c0,.89.46,1.36,1.15,1.36.82,0,1.37-.51,1.39-1.29v-3.6h1.42v6.11h-1.11l-.11-.67c-.44.5-1.07.78-1.83.78ZM94.36,13.42v-1.25h1.1v-1.71h1.42v1.71h1.51v1.25h-1.51v2.7c0,.63.28.92.85.92h.78v1.25h-1.04c-1.29,0-2.01-.72-2.01-2.01v-2.84h-1.1ZM99.49,18.28v-6.11h1.11l.11.68c.43-.51,1.07-.79,1.83-.79h.61v1.32h-.61c-1.11,0-1.64.53-1.64,1.36v3.54h-1.42ZM105.72,18.39c-1.32,0-2.02-.7-2.02-1.84,0-1.28.77-2.05,2.81-2.05h1.03v-.37c0-.59-.31-.89-1.03-.89s-.96.28-1.03.71h-1.54c.06-1.09.85-1.88,2.56-1.88s2.44.82,2.44,2.06v4.15h-1.11l-.15-.84c-.43.61-1.12.95-1.98.95ZM105.96,17.22c.9,0,1.58-.67,1.58-1.44v-.18h-1.03c-.96,0-1.32.35-1.32.9,0,.44.28.72.77.72ZM112.47,18.28c-1.28,0-2-.72-2-2.01v-6.53h1.42v6.39c0,.63.28.92.84.92h.3v1.25h-.56ZM114.01,18.28v-6.11h1.42v6.11h-1.42ZM114.72,11.44c-.51,0-.92-.4-.92-.92s.4-.92.92-.92.92.4.92.92-.42.92-.92.92ZM116.77,13.42v-1.25h4.76v1.25l-3.31,3.61h3.31v1.25h-4.88v-1.25l3.31-3.61h-3.19ZM125.14,18.39c-1.75,0-2.87-1.12-2.87-2.97v-.39c0-1.84,1.12-2.97,2.87-2.97s2.87,1.15,2.87,3.16v.48h-4.32c.07,1.01.59,1.44,1.45,1.44s1.22-.35,1.34-.76h1.47c-.24,1.15-1.1,2-2.81,2ZM125.14,13.31c-.82,0-1.31.39-1.43,1.27h2.86c-.11-.9-.6-1.27-1.43-1.27ZM129.23,18.28v-6.11h1.11l.11.68c.43-.51,1.07-.79,1.83-.79h.61v1.32h-.61c-1.11,0-1.64.53-1.64,1.36v3.54h-1.42Z"/>
</svg>